<svg xmlns="http://www.w3.org/2000/svg" data-name="Calque 1" viewBox="0 0 74.35 124.8375" x="0px" y="0px"><defs><style>.cls-1{fill:none;}</style></defs><title>ski_lift</title><polygon class="cls-1" points="42.3 25.8 38.11 8.42 36.06 8.73 31.95 25.8 42.3 25.8"/><path class="cls-1" d="M19.91,78.77H34.13V67.4h-.08C26.8,67.4,20.81,72.37,19.91,78.77Z" transform="translate(-12.66 -0.06)"/><polygon class="cls-1" points="28.32 40.9 45.93 40.9 42.71 27.53 31.54 27.53 28.32 40.9"/><path class="cls-1" d="M37.82,54.08a.94.94,0,0,0,.15.78.82.82,0,0,0,.67.35h22.3a.82.82,0,0,0,.67-.35.94.94,0,0,0,.15-.78L59,42.69H40.56Z" transform="translate(-12.66 -0.06)"/><rect class="cls-1" x="38.04" y="67.34" width="11.08" height="11.37"/><path class="cls-1" d="M65.47,67.4h0V78.77H79.66C78.73,72.37,72.73,67.4,65.47,67.4Z" transform="translate(-12.66 -0.06)"/><rect class="cls-1" x="25.13" y="67.34" width="11.08" height="11.37"/><path d="M65.47,60.91H34.05c-11.8,0-21.39,8.77-21.39,19.54v8.31c0,6.17,5.49,11.18,12.24,11.18H74.67c6.75,0,12.24-5,12.24-11.18V80.5C86.91,69.69,77.29,60.91,65.47,60.91ZM34.13,78.77H19.91c.9-6.4,6.9-11.37,14.15-11.37h.08Zm14.74,0H37.79V67.4H48.87Zm12.91,0H50.7V67.4H61.78Zm3.66,0V67.4h0c7.26,0,13.26,5,14.19,11.37Z" transform="translate(-12.66 -0.06)"/><path d="M13.48,12.85,35.63,9.39v0a1.31,1.31,0,0,0,1.49,1.1l7.69-1.14L34.28,53.1a5.1,5.1,0,0,0,.8,4.18,4.37,4.37,0,0,0,3.56,1.88h22.3a4.37,4.37,0,0,0,3.56-1.88,5.1,5.1,0,0,0,.8-4.18L54.42,7.94l8.65-1.28a1.31,1.31,0,0,0,1.1-1.49l0-.24L87,1.36l-.2-1.3L64,3.63V3.57a1.31,1.31,0,0,0-1.49-1.1L52.28,4a4.27,4.27,0,0,0-2.49-.81h0a4.32,4.32,0,0,0-3.41,1.68L36.5,6.31a1.31,1.31,0,0,0-1.1,1.49l0,.29L13.28,11.55ZM61.75,54.08a.94.94,0,0,1-.15.78.82.82,0,0,1-.67.35H38.64a.82.82,0,0,1-.67-.35.94.94,0,0,1-.15-.78l2.74-11.39H59ZM58.59,41H41L44.2,27.59H55.37ZM48.73,8.79l2-.3L55,25.87H44.61Z" transform="translate(-12.66 -0.06)"/><text x="0" y="114.87" font-size="5px" font-weight="bold" font-family="'Helvetica Neue', Helvetica, Arial-Unicode, Arial, Sans-serif">Created by Tanguy Krl</text><text x="0" y="119.87" font-size="5px" font-weight="bold" font-family="'Helvetica Neue', Helvetica, Arial-Unicode, Arial, Sans-serif">from the Noun Project</text></svg>
