<?xml version="1.0" encoding="UTF-8"?>
<svg width="1200pt" height="1200pt" version="1.1" viewBox="0 0 1200 1200" xmlns="http://www.w3.org/2000/svg">
 <path d="m492.25 862.34-1.3164-1.582c-13.199-15.566-21.484-35.051-21.484-55.684v-554.37l-394.05 133.45v-34.047l820.38-277.02v33.883l-393.09 132.67v548.48c0 37.098 29.301 68.199 66.785 68.199h172.93v33.398h-186.29c-24.133 0-48.031-8.7812-63.883-27.383zm-19.008 233.07 561.91-99.117c22.469-3.9492 39.051-16.785 56.352-34.551 15.949-28.934 22.949-6.1484 16.801 9.9336-5.3008 30.398-31 52-60.5 57.168l-568.68 100.28zm195-339.98 134.27 9.1523c21.516 1.418 38.215 19.551 37 41.133l-11.652 214.15h-52.367l-9.9648-180.27h-193.35c-21.73 0-48.031-9.4844-48.281-34.332l-0.58203-61.516v-166.67c0-41.785 38.18-69.434 78.031-68.816l7.3672 0.11719c36.25 0.59766 72.984 24.883 70.617 63.867zm-65.559-397.25c36.035 0 65.469 29.434 65.469 65.453 0 36.047-29.434 65.449-65.469 65.449-36.031 0-65.449-29.402-65.449-65.449 0-36.02 29.418-65.453 65.449-65.453zm-61.539-309.06c33.031 0 60.051 26.949 60.051 60.051 0 33.047-27.02 60.016-60.051 60.016-33.082 0-60.066-26.969-60.066-60.016 0-33.102 26.984-60.051 60.066-60.051zm-145.66 51.824c33.051 0 60.066 27 60.066 60.047 0 33.051-27.016 60.035-60.066 60.035s-60.066-26.984-60.066-60.035c0-33.047 27.016-60.047 60.066-60.047z" fill-rule="evenodd"/>
</svg>
