<?xml version="1.0" encoding="UTF-8"?>
<svg width="1200pt" height="1200pt" version="1.1" viewBox="0 0 1200 1200" xmlns="http://www.w3.org/2000/svg">
 <path d="m428.49 291.78c-31.23 3.5117-53.672 31.77-50.102 63l23.609 205.89c1.6484 14.398 8.7891 26.852 18.809 35.82 3.6914 6.5703 8.7305 12.422 15.422 16.77l119.19 78.512v158.79c0 21.75 17.578 39.328 39.328 39.328 21.691 0 39.211-17.578 39.211-39.328v-200.58c0-0.30078-0.058593-0.60156-0.058593-0.80859 0.12109-15.93-7.5-31.59-21.75-41.012l-97.379-64.078-18.629-162.45h163.65c17.699 0 31.98-14.371 31.98-31.98s-14.309-31.949-31.98-31.949l-177.09-0.007812c-11.309-17.699-31.949-28.527-54.211-25.918zm290.82 29.188 136.35-151.5-22.262-20.191-133.23 148.08c8.043 6.2734 14.613 14.316 19.141 23.613zm-161.97 178.83 76.109-84.059h-40.5l-57.898 63.898zm457.2 268.08-27.18 6.3906c5.3984 22.801-8.6094 45.602-30.988 51.148l-717.06 182.22 6.8086 27.422 716.88-182.1c37.625-9.0898 60.633-47.191 51.543-85.082zm-563.31-42.539c8.25 6.5703 20.219 5.1602 26.789-3.1211 6.5703-8.1914 5.2188-20.219-3.0586-26.789l-123.51-97.98c-8.25-6.4805-20.281-5.1016-26.789 3.1211-6.5703 8.3086-5.2188 20.34 3.0586 26.852zm-25.141-449.97c40.078-0.42188 72.422-33.602 72.359-74.191 0-40.531-32.762-72.961-72.84-72.57-40.141 0.30078-72.719 33.48-72.48 74.07 0.12109 40.469 32.641 72.992 72.961 72.691z"/>
</svg>
