<?xml version="1.0" encoding="UTF-8" standalone="no"?>
<svg
   version="1.1"
   style="enable-background:new 0 0 100 100;"
   inkscape:version="1.4 (e7c3feb100, 2024-10-09)"
   xmlns="http://www.w3.org/2000/svg"
   xmlns:svg="http://www.w3.org/2000/svg"><defs /><sodipodi:namedview /><g
     id="g6"><g
       id="g5"><path
         d="M59.69,72.32H40.78c-0.17,0-0.33-0.1-0.42-0.25c-0.24-0.45-5.95-11.1-5.96-15.45c0-2.46,3.95-12.24,6.68-14.98    c0.56-0.56,1.06-0.83,1.53-0.83h15.25c0.47,0,0.97,0.27,1.53,0.83c2.74,2.74,6.69,12.52,6.68,14.98c-0.01,4.35-5.72,15-5.96,15.45    C60.03,72.23,59.87,72.32,59.69,72.32z M59.69,71.85L59.69,71.85L59.69,71.85z M41.06,71.38h18.35    c0.87-1.65,5.71-10.99,5.72-14.75c0-2.28-3.85-11.75-6.41-14.31c-0.5-0.5-0.77-0.55-0.86-0.55H42.61c-0.09,0-0.36,0.05-0.86,0.55    c-2.55,2.56-6.41,12.03-6.41,14.31C35.35,60.39,40.2,69.73,41.06,71.38z"
         /><rect
         x="49.76"
         y="41.29"
         width="0.95"
         height="15.34"
         /><path
         d="M65.6,56.62c-0.01,4.28-5.91,15.22-5.91,15.22h-9.46h-9.46c0,0-5.9-10.95-5.91-15.22H65.6z"
         /><path
         d="M52.24,39.73h-4.01c-0.26,0-0.47-0.21-0.47-0.47s0.21-0.47,0.47-0.47h4.01c0.26,0,0.47,0.21,0.47,0.47    S52.5,39.73,52.24,39.73z"
         /><path
         d="M50.24,39.73c-0.26,0-0.47-0.21-0.47-0.47v-6.67c0-0.26,0.21-0.47,0.47-0.47s0.47,0.21,0.47,0.47v6.67    C50.71,39.52,50.5,39.73,50.24,39.73z"
         /><path
         d="M34.87,37.56c-0.41,0-0.78-0.26-0.91-0.67c-0.15-0.5,0.13-1.03,0.63-1.18l26.76-7.99c0.5-0.15,1.03,0.14,1.18,0.63    c0.15,0.5-0.13,1.03-0.63,1.18l-26.76,7.99C35.05,37.55,34.96,37.56,34.87,37.56z"
         /></g></g><text
     x="23.987207"
     y="78.6194"
     font-size="5px"
     font-weight="bold"
     font-family="'Helvetica Neue', Helvetica, Arial-Unicode, Arial, Sans-serif"
     >Created by lipi</text><text
     x="23.987207"
     y="83.6194"
     font-size="5px"
     font-weight="bold"
     font-family="'Helvetica Neue', Helvetica, Arial-Unicode, Arial, Sans-serif"
     >from the Noun Project</text></svg>
