<svg xmlns="http://www.w3.org/2000/svg" viewBox="0 0 100 125" x="0px" y="0px"><g data-name="Layer 2"><path d="M21.68,50.72a5.93,5.93,0,0,0-2.95-7.85,5.84,5.84,0,0,0-4.53-.15,5.92,5.92,0,1,0,7.48,8Zm-7,1.12a3.92,3.92,0,1,1,3.24-7.15A3.87,3.87,0,0,1,20,46.89a3.92,3.92,0,0,1-5.3,5Z"/><path d="M91.05,55.37c-38.52-2-76.11-25.53-81.43-29.78a1,1,0,0,0-1.4.16,1,1,0,0,0,.15,1.4C11.18,29.4,22.88,37,38.94,44a4,4,0,0,0-1.54,1.65l-2.79,5.56L22.71,53.4a3.93,3.93,0,0,0-2.56,1.67,4,4,0,0,0-.68,2,3.91,3.91,0,0,0,1.4,4l16,12.74a4,4,0,0,0,4.57.29L54,66.35l11.75.77a4,4,0,1,0,.53-8l-13-.86a3.88,3.88,0,0,0-2.35.58l-11.31,6.9-7.51-6L38,58.66a4,4,0,0,0,2.84-2.13l3.68-7.34a3.94,3.94,0,0,0,.28-2.77C58.5,51.88,74.64,56.54,91,57.37h0a1,1,0,0,0,0-2ZM42.76,48.3l-3.68,7.33a2,2,0,0,1-1.42,1.07L23.82,59.29a2,2,0,0,1-2.34-1.59,2,2,0,0,1,.32-1.5,2,2,0,0,1,1.28-.84L35.46,53a1,1,0,0,0,.71-.53l3-6a2,2,0,0,1,1.16-1,1.93,1.93,0,0,1,.63-.1,2,2,0,0,1,1.78,2.9ZM40.09,67.83,52,60.56a2.12,2.12,0,0,1,1.18-.29l13,.87a2,2,0,0,1,1.86,2.12,2,2,0,0,1-2.13,1.87l-12.06-.8a1.1,1.1,0,0,0-.59.14L40.38,72.34a2,2,0,0,1-2.29-.15l-13.74-11,5.19-1L39,67.76A1,1,0,0,0,40.09,67.83Z"/></g><text x="0" y="115" fill="#000000" font-size="5px" font-weight="bold" font-family="'Helvetica Neue', Helvetica, Arial-Unicode, Arial, Sans-serif">Created by Florent B</text><text x="0" y="120" fill="#000000" font-size="5px" font-weight="bold" font-family="'Helvetica Neue', Helvetica, Arial-Unicode, Arial, Sans-serif">from the Noun Project</text></svg>