<svg xmlns="http://www.w3.org/2000/svg" xmlns:xlink="http://www.w3.org/1999/xlink" version="1.1" x="0px" y="0px" viewBox="0 0 100 125" enable-background="new 0 0 100 100" xml:space="preserve"><g><path d="M83.196,77.837c-0.641-1.517-1.678-2.578-3.116-3.162l-15.405-6.287c-0.981-0.397-2.22-0.46-3.718-0.138l-15.176,3.534   L39.648,57.52l14.575-9.02c1.308-0.812,2.103-2.234,2.103-3.777V30.303h-8.89v11.943L29.031,53.64   c-0.452,0.276-3.009,2.1-3.745,4.359c-0.589,1.812-0.648,3.323-0.145,4.91l7.507,18.052c0.549,1.836,1.679,3.094,3.381,3.787   c1.639,0.67,3.565,0.802,5.788,0.421l20.867-5.003l12.958,5.278c1.448,0.595,2.926,0.595,4.443-0.017   c1.511-0.588,2.572-1.648,3.192-3.156C83.863,80.83,83.837,79.349,83.196,77.837z"/><path d="M56.326,22.092c0-2.457-1.991-4.45-4.444-4.45c-2.454,0-4.446,1.994-4.446,4.45v6.001h8.89V22.092z"/></g><path d="M34.193,42.729c0,4.693-3.802,8.494-8.499,8.494c-4.692,0-8.494-3.8-8.494-8.494c0-4.69,3.802-8.504,8.494-8.504  C30.391,34.225,34.193,38.039,34.193,42.729z"/><polygon points="0.641,12.734 0.587,12.925 0.587,15.424 43.675,27.692 43.675,25.005 "/><polygon points="99.248,14.114 59.886,25.376 59.886,28.093 99.248,16.82 "/><text x="0" y="115" font-size="5px" font-weight="bold" font-family="'Helvetica Neue', Helvetica, Arial-Unicode, Arial, Sans-serif">Created by Luis Prado</text><text x="0" y="120" font-size="5px" font-weight="bold" font-family="'Helvetica Neue', Helvetica, Arial-Unicode, Arial, Sans-serif">from the Noun Project</text></svg>
