<svg xmlns="http://www.w3.org/2000/svg" viewBox="0 0 32 40" fill="none" x="0px" y="0px"><path d="M25.4392 7.40302C25.4392 9.05987 24.0961 10.403 22.4392 10.403C20.7824 10.403 19.4392 9.05987 19.4392 7.40302C19.4392 5.74616 20.7824 4.40302 22.4392 4.40302C24.0961 4.40302 25.4392 5.74616 25.4392 7.40302Z" /><path d="M4.51099 6.47528C4.28783 6.39532 4.03257 6.48368 3.90984 6.69625C3.77177 6.9354 3.85371 7.24119 4.09286 7.37926L10.9149 11.318L10.8588 11.3504C9.4239 12.1789 8.93227 14.0136 9.7607 15.4485C10.0578 15.9631 10.4843 16.3564 10.9754 16.6109L14.7074 18.771L11.03 22.4498L4.20809 18.5112L4.12623 18.4732C3.90306 18.3932 3.64781 18.4816 3.52508 18.6942C3.38701 18.9333 3.46894 19.2391 3.70809 19.3772L18.7277 28.0488L18.9369 28.1623C19.9247 28.665 21.0664 28.7866 22.1424 28.4983L23.3739 28.1683L23.4586 28.1373C23.6729 28.036 23.7909 27.7931 23.7274 27.556C23.6559 27.2892 23.3818 27.1309 23.115 27.2024L21.8836 27.5324L21.6757 27.5813C20.8409 27.7513 19.9698 27.6112 19.2277 27.1827L13.7196 24.0027L17.749 19.9726C17.872 19.8496 17.9783 19.7111 18.0655 19.5606C18.619 18.6047 18.2927 17.3812 17.3368 16.8277L15.3572 15.6815L18.1943 14.0434L19.2079 15.7991C19.3837 16.1035 19.6366 16.3563 19.9412 16.5318L24.362 19.0802C25.0797 19.494 25.997 19.2475 26.4107 18.5298C26.8244 17.8121 26.578 16.8949 25.8603 16.4811L21.671 14.066L19.3731 10.0851L19.3677 10.0883L19.287 9.9485C18.4586 8.51362 16.6238 8.022 15.1889 8.85042L11.9149 10.7406L4.59286 6.51324L4.51099 6.47528Z" /><text x="0" y="47"  font-size="5px" font-weight="bold" font-family="'Helvetica Neue', Helvetica, Arial-Unicode, Arial, Sans-serif">Created by SeungJun</text><text x="0" y="52"  font-size="5px" font-weight="bold" font-family="'Helvetica Neue', Helvetica, Arial-Unicode, Arial, Sans-serif">from the Noun Project</text></svg>
